<svg width="285" height="26" viewBox="0 0 285 26" fill="none" xmlns="http://www.w3.org/2000/svg">
<path d="M11 9H15C15.2652 9 15.5196 8.89464 15.7071 8.70711C15.8946 8.51957 16 8.26522 16 8C16 7.73478 15.8946 7.48043 15.7071 7.29289C15.5196 7.10536 15.2652 7 15 7H13V6C13 5.73478 12.8946 5.48043 12.7071 5.29289C12.5196 5.10536 12.2652 5 12 5C11.7348 5 11.4804 5.10536 11.2929 5.29289C11.1054 5.48043 11 5.73478 11 6V7C10.2044 7 9.44129 7.31607 8.87868 7.87868C8.31607 8.44129 8 9.20435 8 10C8 10.7956 8.31607 11.5587 8.87868 12.1213C9.44129 12.6839 10.2044 13 11 13H13C13.2652 13 13.5196 13.1054 13.7071 13.2929C13.8946 13.4804 14 13.7348 14 14C14 14.2652 13.8946 14.5196 13.7071 14.7071C13.5196 14.8946 13.2652 15 13 15H9C8.73479 15 8.48043 15.1054 8.2929 15.2929C8.10536 15.4804 8 15.7348 8 16C8 16.2652 8.10536 16.5196 8.2929 16.7071C8.48043 16.8946 8.73479 17 9 17H11V18C11 18.2652 11.1054 18.5196 11.2929 18.7071C11.4804 18.8946 11.7348 19 12 19C12.2652 19 12.5196 18.8946 12.7071 18.7071C12.8946 18.5196 13 18.2652 13 18V17C13.7957 17 14.5587 16.6839 15.1213 16.1213C15.6839 15.5587 16 14.7956 16 14C16 13.2044 15.6839 12.4413 15.1213 11.8787C14.5587 11.3161 13.7957 11 13 11H11C10.7348 11 10.4804 10.8946 10.2929 10.7071C10.1054 10.5196 10 10.2652 10 10C10 9.73478 10.1054 9.48043 10.2929 9.29289C10.4804 9.10536 10.7348 9 11 9ZM12 1C9.82441 1 7.69767 1.64514 5.88873 2.85383C4.07979 4.06253 2.66989 5.78049 1.83733 7.79048C1.00477 9.80047 0.786929 12.0122 1.21137 14.146C1.6358 16.2798 2.68345 18.2398 4.22183 19.7782C5.76021 21.3166 7.72022 22.3642 9.85401 22.7886C11.9878 23.2131 14.1995 22.9952 16.2095 22.1627C18.2195 21.3301 19.9375 19.9202 21.1462 18.1113C22.3549 16.3023 23 14.1756 23 12C23 9.08262 21.8411 6.28473 19.7782 4.22183C17.7153 2.15893 14.9174 1 12 1ZM12 21C10.22 21 8.47992 20.4722 6.99987 19.4832C5.51983 18.4943 4.36628 17.0887 3.68509 15.4442C3.0039 13.7996 2.82567 11.99 3.17294 10.2442C3.5202 8.49836 4.37737 6.89471 5.63604 5.63604C6.89472 4.37737 8.49836 3.5202 10.2442 3.17293C11.99 2.82567 13.7996 3.0039 15.4442 3.68508C17.0887 4.36627 18.4943 5.51983 19.4832 6.99987C20.4722 8.47991 21 10.22 21 12C21 14.3869 20.0518 16.6761 18.364 18.364C16.6761 20.0518 14.387 21 12 21Z" fill="black"/>
<path d="M33.185 7.49V12.1H38.815V13.99H33.185V20H30.835V5.6H39.815V7.49H33.185ZM43.9445 9.8V20H41.7945V9.8H43.9445ZM44.3045 6.72C44.3045 6.91333 44.2645 7.09667 44.1845 7.27C44.1112 7.44333 44.0079 7.59667 43.8745 7.73C43.7412 7.85667 43.5845 7.96 43.4045 8.04C43.2312 8.11333 43.0445 8.15 42.8445 8.15C42.6512 8.15 42.4679 8.11333 42.2945 8.04C42.1279 7.96 41.9812 7.85667 41.8545 7.73C41.7279 7.59667 41.6245 7.44333 41.5445 7.27C41.4712 7.09667 41.4345 6.91333 41.4345 6.72C41.4345 6.52 41.4712 6.33333 41.5445 6.16C41.6245 5.98667 41.7279 5.83667 41.8545 5.71C41.9812 5.57667 42.1279 5.47333 42.2945 5.4C42.4679 5.32 42.6512 5.28 42.8445 5.28C43.0445 5.28 43.2312 5.32 43.4045 5.4C43.5845 5.47333 43.7412 5.57667 43.8745 5.71C44.0079 5.83667 44.1112 5.98667 44.1845 6.16C44.2645 6.33333 44.3045 6.52 44.3045 6.72ZM48.6559 11.15C48.8759 10.9233 49.1026 10.72 49.3359 10.54C49.5759 10.3533 49.8293 10.1933 50.0959 10.06C50.3626 9.92667 50.6459 9.82333 50.9459 9.75C51.2459 9.67667 51.5726 9.64 51.9259 9.64C52.4859 9.64 52.9759 9.73333 53.3959 9.92C53.8226 10.1067 54.1793 10.37 54.4659 10.71C54.7593 11.05 54.9793 11.46 55.1259 11.94C55.2726 12.4133 55.3459 12.9367 55.3459 13.51V20H53.2059V13.51C53.2059 12.8233 53.0459 12.29 52.7259 11.91C52.4126 11.53 51.9326 11.34 51.2859 11.34C50.8059 11.34 50.3593 11.45 49.9459 11.67C49.5393 11.89 49.1559 12.19 48.7959 12.57V20H46.6459V9.8H47.9459C48.2393 9.8 48.4259 9.93667 48.5059 10.21L48.6559 11.15ZM63.3069 15.54C62.5402 15.5667 61.8935 15.63 61.3669 15.73C60.8402 15.8233 60.4135 15.9467 60.0869 16.1C59.7602 16.2467 59.5235 16.4233 59.3769 16.63C59.2369 16.8367 59.1669 17.0633 59.1669 17.31C59.1669 17.55 59.2035 17.7567 59.2769 17.93C59.3569 18.0967 59.4635 18.2367 59.5969 18.35C59.7369 18.4567 59.8969 18.5367 60.0769 18.59C60.2635 18.6367 60.4669 18.66 60.6869 18.66C61.2469 18.66 61.7269 18.5567 62.1269 18.35C62.5335 18.1367 62.9269 17.83 63.3069 17.43V15.54ZM57.6069 11.22C58.7602 10.1467 60.1335 9.61 61.7269 9.61C62.3135 9.61 62.8335 9.70667 63.2869 9.9C63.7469 10.0867 64.1302 10.3533 64.4369 10.7C64.7502 11.0467 64.9869 11.46 65.1469 11.94C65.3135 12.4133 65.3969 12.94 65.3969 13.52V20H64.4369C64.2302 20 64.0735 19.97 63.9669 19.91C63.8602 19.8433 63.7702 19.7133 63.6969 19.52L63.4869 18.69C63.2269 18.9233 62.9702 19.1333 62.7169 19.32C62.4635 19.5 62.2002 19.6533 61.9269 19.78C61.6602 19.9067 61.3702 20 61.0569 20.06C60.7502 20.1267 60.4102 20.16 60.0369 20.16C59.6235 20.16 59.2369 20.1033 58.8769 19.99C58.5235 19.8767 58.2169 19.7067 57.9569 19.48C57.6969 19.2467 57.4902 18.96 57.3369 18.62C57.1902 18.28 57.1169 17.88 57.1169 17.42C57.1169 17.0267 57.2202 16.6433 57.4269 16.27C57.6402 15.8967 57.9869 15.5633 58.4669 15.27C58.9535 14.97 59.5902 14.7233 60.3769 14.53C61.1702 14.3367 62.1469 14.2267 63.3069 14.2V13.52C63.3069 12.7867 63.1502 12.24 62.8369 11.88C62.5235 11.52 62.0635 11.34 61.4569 11.34C61.0435 11.34 60.6969 11.3933 60.4169 11.5C60.1369 11.6 59.8935 11.71 59.6869 11.83C59.4802 11.95 59.2969 12.0633 59.1369 12.17C58.9769 12.27 58.8069 12.32 58.6269 12.32C58.4802 12.32 58.3535 12.2833 58.2469 12.21C58.1469 12.13 58.0635 12.0333 57.9969 11.92L57.6069 11.22ZM69.9255 11.15C70.1455 10.9233 70.3721 10.72 70.6055 10.54C70.8455 10.3533 71.0988 10.1933 71.3655 10.06C71.6321 9.92667 71.9155 9.82333 72.2155 9.75C72.5155 9.67667 72.8421 9.64 73.1955 9.64C73.7555 9.64 74.2455 9.73333 74.6655 9.92C75.0921 10.1067 75.4488 10.37 75.7355 10.71C76.0288 11.05 76.2488 11.46 76.3955 11.94C76.5421 12.4133 76.6155 12.9367 76.6155 13.51V20H74.4755V13.51C74.4755 12.8233 74.3155 12.29 73.9955 11.91C73.6821 11.53 73.2021 11.34 72.5555 11.34C72.0755 11.34 71.6288 11.45 71.2155 11.67C70.8088 11.89 70.4255 12.19 70.0655 12.57V20H67.9155V9.8H69.2155C69.5088 9.8 69.6955 9.93667 69.7755 10.21L69.9255 11.15ZM86.3364 11.8C86.2697 11.8867 86.2064 11.9533 86.1464 12C86.0864 12.0467 85.9997 12.07 85.8864 12.07C85.7731 12.07 85.6531 12.03 85.5264 11.95C85.4064 11.87 85.2597 11.7833 85.0864 11.69C84.9197 11.59 84.7164 11.5 84.4764 11.42C84.2364 11.34 83.9364 11.3 83.5764 11.3C83.1097 11.3 82.6997 11.3833 82.3464 11.55C81.9997 11.7167 81.7064 11.9567 81.4664 12.27C81.2331 12.5767 81.0564 12.9533 80.9364 13.4C80.8231 13.84 80.7664 14.3367 80.7664 14.89C80.7664 15.4633 80.8297 15.9733 80.9564 16.42C81.0831 16.8667 81.2631 17.2433 81.4964 17.55C81.7364 17.8567 82.0231 18.09 82.3564 18.25C82.6964 18.41 83.0764 18.49 83.4964 18.49C83.9097 18.49 84.2464 18.44 84.5064 18.34C84.7664 18.24 84.9831 18.13 85.1564 18.01C85.3297 17.89 85.4764 17.78 85.5964 17.68C85.7231 17.58 85.8564 17.53 85.9964 17.53C86.1697 17.53 86.3031 17.5967 86.3964 17.73L87.0064 18.52C86.7597 18.82 86.4864 19.0733 86.1864 19.28C85.8864 19.4867 85.5697 19.6567 85.2364 19.79C84.9031 19.9167 84.5564 20.0067 84.1964 20.06C83.8364 20.12 83.4731 20.15 83.1064 20.15C82.4731 20.15 81.8797 20.0333 81.3264 19.8C80.7797 19.56 80.2997 19.2167 79.8864 18.77C79.4797 18.3167 79.1564 17.7667 78.9164 17.12C78.6831 16.4667 78.5664 15.7233 78.5664 14.89C78.5664 14.1367 78.6731 13.44 78.8864 12.8C79.0997 12.1533 79.4097 11.5967 79.8164 11.13C80.2297 10.6633 80.7397 10.3 81.3464 10.04C81.9531 9.77333 82.6531 9.64 83.4464 9.64C84.1864 9.64 84.8364 9.76 85.3964 10C85.9631 10.24 86.4664 10.58 86.9064 11.02L86.3364 11.8ZM95.25 13.75C95.25 13.39 95.1967 13.0567 95.09 12.75C94.99 12.4367 94.84 12.1667 94.64 11.94C94.44 11.7067 94.19 11.5267 93.89 11.4C93.5967 11.2667 93.2567 11.2 92.87 11.2C92.09 11.2 91.4767 11.4233 91.03 11.87C90.5833 12.3167 90.3 12.9433 90.18 13.75H95.25ZM90.12 15.07C90.1467 15.65 90.2367 16.1533 90.39 16.58C90.5433 17 90.7467 17.35 91 17.63C91.26 17.91 91.5667 18.12 91.92 18.26C92.28 18.3933 92.68 18.46 93.12 18.46C93.54 18.46 93.9033 18.4133 94.21 18.32C94.5167 18.22 94.7833 18.1133 95.01 18C95.2367 17.88 95.43 17.7733 95.59 17.68C95.75 17.58 95.8967 17.53 96.03 17.53C96.2033 17.53 96.3367 17.5967 96.43 17.73L97.04 18.52C96.7867 18.82 96.5 19.0733 96.18 19.28C95.86 19.4867 95.52 19.6567 95.16 19.79C94.8 19.9167 94.43 20.0067 94.05 20.06C93.67 20.12 93.3 20.15 92.94 20.15C92.2333 20.15 91.5767 20.0333 90.97 19.8C90.37 19.56 89.8467 19.21 89.4 18.75C88.96 18.29 88.6133 17.72 88.36 17.04C88.1133 16.36 87.99 15.5767 87.99 14.69C87.99 13.9833 88.1 13.3233 88.32 12.71C88.5467 12.0967 88.8667 11.5633 89.28 11.11C89.7 10.6567 90.2067 10.3 90.8 10.04C91.4 9.77333 92.0767 9.64 92.83 9.64C93.4567 9.64 94.0367 9.74333 94.57 9.95C95.1033 10.15 95.5633 10.4467 95.95 10.84C96.3367 11.2333 96.6367 11.7167 96.85 12.29C97.07 12.8567 97.18 13.5033 97.18 14.23C97.18 14.5633 97.1433 14.7867 97.07 14.9C96.9967 15.0133 96.8633 15.07 96.67 15.07H90.12Z" fill="black"/>
<path d="M148.089 5.6V20H145.749V13.59H138.519V20H136.169V5.6H138.519V11.9H145.749V5.6H148.089ZM157.498 13.75C157.498 13.39 157.445 13.0567 157.338 12.75C157.238 12.4367 157.088 12.1667 156.888 11.94C156.688 11.7067 156.438 11.5267 156.138 11.4C155.845 11.2667 155.505 11.2 155.118 11.2C154.338 11.2 153.725 11.4233 153.278 11.87C152.831 12.3167 152.548 12.9433 152.428 13.75H157.498ZM152.368 15.07C152.395 15.65 152.485 16.1533 152.638 16.58C152.791 17 152.995 17.35 153.248 17.63C153.508 17.91 153.815 18.12 154.168 18.26C154.528 18.3933 154.928 18.46 155.368 18.46C155.788 18.46 156.151 18.4133 156.458 18.32C156.765 18.22 157.031 18.1133 157.258 18C157.485 17.88 157.678 17.7733 157.838 17.68C157.998 17.58 158.145 17.53 158.278 17.53C158.451 17.53 158.585 17.5967 158.678 17.73L159.288 18.52C159.035 18.82 158.748 19.0733 158.428 19.28C158.108 19.4867 157.768 19.6567 157.408 19.79C157.048 19.9167 156.678 20.0067 156.298 20.06C155.918 20.12 155.548 20.15 155.188 20.15C154.481 20.15 153.825 20.0333 153.218 19.8C152.618 19.56 152.095 19.21 151.648 18.75C151.208 18.29 150.861 17.72 150.608 17.04C150.361 16.36 150.238 15.5767 150.238 14.69C150.238 13.9833 150.348 13.3233 150.568 12.71C150.795 12.0967 151.115 11.5633 151.528 11.11C151.948 10.6567 152.455 10.3 153.048 10.04C153.648 9.77333 154.325 9.64 155.078 9.64C155.705 9.64 156.285 9.74333 156.818 9.95C157.351 10.15 157.811 10.4467 158.198 10.84C158.585 11.2333 158.885 11.7167 159.098 12.29C159.318 12.8567 159.428 13.5033 159.428 14.23C159.428 14.5633 159.391 14.7867 159.318 14.9C159.245 15.0133 159.111 15.07 158.918 15.07H152.368ZM166.883 15.54C166.116 15.5667 165.47 15.63 164.943 15.73C164.416 15.8233 163.99 15.9467 163.663 16.1C163.336 16.2467 163.1 16.4233 162.953 16.63C162.813 16.8367 162.743 17.0633 162.743 17.31C162.743 17.55 162.78 17.7567 162.853 17.93C162.933 18.0967 163.04 18.2367 163.173 18.35C163.313 18.4567 163.473 18.5367 163.653 18.59C163.84 18.6367 164.043 18.66 164.263 18.66C164.823 18.66 165.303 18.5567 165.703 18.35C166.11 18.1367 166.503 17.83 166.883 17.43V15.54ZM161.183 11.22C162.336 10.1467 163.71 9.61 165.303 9.61C165.89 9.61 166.41 9.70667 166.863 9.9C167.323 10.0867 167.706 10.3533 168.013 10.7C168.326 11.0467 168.563 11.46 168.723 11.94C168.89 12.4133 168.973 12.94 168.973 13.52V20H168.013C167.806 20 167.65 19.97 167.543 19.91C167.436 19.8433 167.346 19.7133 167.273 19.52L167.063 18.69C166.803 18.9233 166.546 19.1333 166.293 19.32C166.04 19.5 165.776 19.6533 165.503 19.78C165.236 19.9067 164.946 20 164.633 20.06C164.326 20.1267 163.986 20.16 163.613 20.16C163.2 20.16 162.813 20.1033 162.453 19.99C162.1 19.8767 161.793 19.7067 161.533 19.48C161.273 19.2467 161.066 18.96 160.913 18.62C160.766 18.28 160.693 17.88 160.693 17.42C160.693 17.0267 160.796 16.6433 161.003 16.27C161.216 15.8967 161.563 15.5633 162.043 15.27C162.53 14.97 163.166 14.7233 163.953 14.53C164.746 14.3367 165.723 14.2267 166.883 14.2V13.52C166.883 12.7867 166.726 12.24 166.413 11.88C166.1 11.52 165.64 11.34 165.033 11.34C164.62 11.34 164.273 11.3933 163.993 11.5C163.713 11.6 163.47 11.71 163.263 11.83C163.056 11.95 162.873 12.0633 162.713 12.17C162.553 12.27 162.383 12.32 162.203 12.32C162.056 12.32 161.93 12.2833 161.823 12.21C161.723 12.13 161.64 12.0333 161.573 11.92L161.183 11.22ZM173.682 5.2V20H171.532V5.2H173.682ZM179.605 20.16C178.759 20.16 178.105 19.9233 177.645 19.45C177.192 18.97 176.965 18.2967 176.965 17.43V11.49H175.845C175.725 11.49 175.622 11.4533 175.535 11.38C175.449 11.3 175.405 11.1833 175.405 11.03V10.16L177.055 9.92L177.525 6.97C177.559 6.85667 177.615 6.76667 177.695 6.7C177.775 6.62667 177.882 6.59 178.015 6.59H179.115V9.94H181.945V11.49H179.115V17.28C179.115 17.6467 179.205 17.9267 179.385 18.12C179.565 18.3133 179.805 18.41 180.105 18.41C180.272 18.41 180.415 18.39 180.535 18.35C180.655 18.3033 180.759 18.2567 180.845 18.21C180.932 18.1567 181.005 18.11 181.065 18.07C181.132 18.0233 181.195 18 181.255 18C181.375 18 181.472 18.0667 181.545 18.2L182.185 19.25C181.852 19.5433 181.459 19.77 181.005 19.93C180.552 20.0833 180.085 20.16 179.605 20.16ZM185.79 11.01C186.21 10.5967 186.67 10.2667 187.17 10.02C187.67 9.76667 188.253 9.64 188.92 9.64C189.48 9.64 189.97 9.73333 190.39 9.92C190.817 10.1067 191.173 10.37 191.46 10.71C191.753 11.05 191.973 11.46 192.12 11.94C192.267 12.4133 192.34 12.9367 192.34 13.51V20H190.2V13.51C190.2 12.8233 190.04 12.29 189.72 11.91C189.407 11.53 188.927 11.34 188.28 11.34C187.8 11.34 187.353 11.45 186.94 11.67C186.533 11.89 186.15 12.19 185.79 12.57V20H183.64V5.2H185.79V11.01Z" fill="black"/>
<path d="M126 2H112C111.204 2 110.441 2.31607 109.879 2.87868C109.316 3.44129 109 4.20435 109 5V19C109 19.7956 109.316 20.5587 109.879 21.1213C110.441 21.6839 111.204 22 112 22H126C126.796 22 127.559 21.6839 128.121 21.1213C128.684 20.5587 129 19.7956 129 19V5C129 4.20435 128.684 3.44129 128.121 2.87868C127.559 2.31607 126.796 2 126 2ZM127 19C127 19.2652 126.895 19.5196 126.707 19.7071C126.52 19.8946 126.265 20 126 20H112C111.735 20 111.48 19.8946 111.293 19.7071C111.105 19.5196 111 19.2652 111 19V5C111 4.73478 111.105 4.48043 111.293 4.29289C111.48 4.10536 111.735 4 112 4H126C126.265 4 126.52 4.10536 126.707 4.29289C126.895 4.48043 127 4.73478 127 5V19ZM124 9H122V7C122 6.73478 121.895 6.48043 121.707 6.29289C121.52 6.10536 121.265 6 121 6H117C116.735 6 116.48 6.10536 116.293 6.29289C116.105 6.48043 116 6.73478 116 7V9H114C113.735 9 113.48 9.10536 113.293 9.29289C113.105 9.48043 113 9.73478 113 10V14C113 14.2652 113.105 14.5196 113.293 14.7071C113.48 14.8946 113.735 15 114 15H116V17C116 17.2652 116.105 17.5196 116.293 17.7071C116.48 17.8946 116.735 18 117 18H121C121.265 18 121.52 17.8946 121.707 17.7071C121.895 17.5196 122 17.2652 122 17V15H124C124.265 15 124.52 14.8946 124.707 14.7071C124.895 14.5196 125 14.2652 125 14V10C125 9.73478 124.895 9.48043 124.707 9.29289C124.52 9.10536 124.265 9 124 9ZM123 13H121C120.735 13 120.48 13.1054 120.293 13.2929C120.105 13.4804 120 13.7348 120 14V16H118V14C118 13.7348 117.895 13.4804 117.707 13.2929C117.52 13.1054 117.265 13 117 13H115V11H117C117.265 11 117.52 10.8946 117.707 10.7071C117.895 10.5196 118 10.2652 118 10V8H120V10C120 10.2652 120.105 10.5196 120.293 10.7071C120.48 10.8946 120.735 11 121 11H123V13Z" fill="black"/>
<path d="M250.816 6.6L246.336 21H244.226L240.846 10.66C240.806 10.5467 240.766 10.4233 240.726 10.29C240.692 10.1567 240.659 10.0133 240.626 9.86C240.592 10.0133 240.556 10.1567 240.516 10.29C240.482 10.4233 240.446 10.5467 240.406 10.66L236.996 21H234.886L230.406 6.6H232.366C232.566 6.6 232.732 6.65 232.866 6.75C233.006 6.84333 233.099 6.97333 233.146 7.14L235.846 16.37C235.899 16.57 235.949 16.7867 235.996 17.02C236.042 17.2533 236.089 17.4967 236.136 17.75C236.182 17.4967 236.232 17.2533 236.286 17.02C236.346 16.78 236.409 16.5633 236.476 16.37L239.566 7.14C239.612 7.00667 239.706 6.88333 239.846 6.77C239.986 6.65667 240.152 6.6 240.346 6.6H241.026C241.232 6.6 241.399 6.65333 241.526 6.76C241.652 6.86 241.749 6.98667 241.816 7.14L244.896 16.37C244.962 16.5633 245.022 16.7733 245.076 17C245.136 17.22 245.189 17.4533 245.236 17.7C245.282 17.4533 245.326 17.22 245.366 17C245.412 16.7733 245.462 16.5633 245.516 16.37L248.206 7.14C248.246 6.99333 248.336 6.86667 248.476 6.76C248.622 6.65333 248.792 6.6 248.986 6.6H250.816ZM255.603 10.64C256.356 10.64 257.036 10.7633 257.643 11.01C258.256 11.2567 258.776 11.6067 259.203 12.06C259.636 12.5133 259.969 13.0633 260.203 13.71C260.436 14.3567 260.553 15.0833 260.553 15.89C260.553 16.6967 260.436 17.4233 260.203 18.07C259.969 18.7167 259.636 19.27 259.203 19.73C258.776 20.1833 258.256 20.5333 257.643 20.78C257.036 21.0267 256.356 21.15 255.603 21.15C254.843 21.15 254.156 21.0267 253.543 20.78C252.936 20.5333 252.416 20.1833 251.983 19.73C251.549 19.27 251.216 18.7167 250.983 18.07C250.749 17.4233 250.633 16.6967 250.633 15.89C250.633 15.0833 250.749 14.3567 250.983 13.71C251.216 13.0633 251.549 12.5133 251.983 12.06C252.416 11.6067 252.936 11.2567 253.543 11.01C254.156 10.7633 254.843 10.64 255.603 10.64ZM255.603 19.47C256.523 19.47 257.206 19.1633 257.653 18.55C258.106 17.93 258.333 17.0467 258.333 15.9C258.333 14.7533 258.106 13.87 257.653 13.25C257.206 12.6233 256.523 12.31 255.603 12.31C254.669 12.31 253.976 12.6233 253.523 13.25C253.069 13.87 252.843 14.7533 252.843 15.9C252.843 17.0467 253.069 17.93 253.523 18.55C253.976 19.1633 254.669 19.47 255.603 19.47ZM264.649 12.69C264.969 12.0433 265.355 11.5367 265.809 11.17C266.262 10.7967 266.805 10.61 267.439 10.61C267.659 10.61 267.865 10.6367 268.059 10.69C268.252 10.7367 268.425 10.81 268.579 10.91L268.429 12.53C268.402 12.6433 268.359 12.7233 268.299 12.77C268.245 12.81 268.172 12.83 268.079 12.83C267.979 12.83 267.835 12.8133 267.649 12.78C267.462 12.74 267.265 12.72 267.059 12.72C266.759 12.72 266.492 12.7633 266.259 12.85C266.032 12.9367 265.825 13.0633 265.639 13.23C265.459 13.3967 265.299 13.6 265.159 13.84C265.019 14.08 264.889 14.3533 264.769 14.66V21H262.619V10.8H263.869C264.095 10.8 264.252 10.8433 264.339 10.93C264.425 11.01 264.485 11.1533 264.519 11.36L264.649 12.69ZM272.191 6.2V21H270.041V6.2H272.191ZM281.355 13.31C281.055 12.9233 280.725 12.6533 280.365 12.5C280.005 12.3467 279.615 12.27 279.195 12.27C278.355 12.27 277.698 12.58 277.225 13.2C276.752 13.8133 276.515 14.7233 276.515 15.93C276.515 16.5567 276.568 17.0933 276.675 17.54C276.782 17.98 276.935 18.34 277.135 18.62C277.335 18.9 277.578 19.1033 277.865 19.23C278.152 19.3567 278.475 19.42 278.835 19.42C279.382 19.42 279.852 19.3033 280.245 19.07C280.645 18.83 281.015 18.4933 281.355 18.06V13.31ZM283.505 6.2V21H282.205C281.918 21 281.735 20.8633 281.655 20.59L281.465 19.48C281.038 19.98 280.552 20.3833 280.005 20.69C279.465 20.9967 278.835 21.15 278.115 21.15C277.542 21.15 277.022 21.0367 276.555 20.81C276.088 20.5767 275.688 20.24 275.355 19.8C275.022 19.36 274.762 18.8167 274.575 18.17C274.395 17.5167 274.305 16.77 274.305 15.93C274.305 15.17 274.405 14.4667 274.605 13.82C274.812 13.1733 275.105 12.6133 275.485 12.14C275.865 11.66 276.325 11.2867 276.865 11.02C277.412 10.7467 278.022 10.61 278.695 10.61C279.295 10.61 279.805 10.7067 280.225 10.9C280.645 11.0867 281.022 11.35 281.355 11.69V6.2H283.505Z" fill="black"/>
<path d="M224.41 10.64C224.41 10.64 224.41 10.64 224.41 10.59C223.705 8.66623 222.427 7.00529 220.748 5.83187C219.068 4.65845 217.069 4.02917 215.02 4.02917C212.971 4.02917 210.972 4.65845 209.293 5.83187C207.613 7.00529 206.335 8.66623 205.63 10.59C205.63 10.59 205.63 10.59 205.63 10.64C204.843 12.8109 204.843 15.1891 205.63 17.36C205.63 17.36 205.63 17.36 205.63 17.41C206.335 19.3338 207.613 20.9947 209.293 22.1681C210.972 23.3416 212.971 23.9708 215.02 23.9708C217.069 23.9708 219.068 23.3416 220.748 22.1681C222.427 20.9947 223.705 19.3338 224.41 17.41C224.41 17.41 224.41 17.41 224.41 17.36C225.197 15.1891 225.197 12.8109 224.41 10.64ZM207.26 16C206.913 14.6892 206.913 13.3108 207.26 12H209.12C208.96 13.3285 208.96 14.6715 209.12 16H207.26ZM208.08 18H209.48C209.715 18.8918 210.05 19.7541 210.48 20.57C209.499 19.9019 208.68 19.0241 208.08 18ZM209.48 10H208.08C208.671 8.97909 209.48 8.10147 210.45 7.43C210.031 8.24725 209.705 9.10942 209.48 10ZM214 21.7C212.772 20.7987 211.909 19.4852 211.57 18H214V21.7ZM214 16H211.14C210.953 14.6732 210.953 13.3268 211.14 12H214V16ZM214 10H211.57C211.909 8.51477 212.772 7.20132 214 6.3V10ZM221.92 10H220.52C220.285 9.10816 219.95 8.24594 219.52 7.43C220.501 8.09807 221.321 8.97594 221.92 10ZM216 6.3C217.228 7.20132 218.091 8.51477 218.43 10H216V6.3ZM216 21.7V18H218.43C218.091 19.4852 217.228 20.7987 216 21.7ZM218.86 16H216V12H218.86C219.047 13.3268 219.047 14.6732 218.86 16ZM219.55 20.57C219.98 19.7541 220.315 18.8918 220.55 18H221.95C221.351 19.0241 220.531 19.9019 219.55 20.57ZM222.74 16H220.88C220.961 15.3365 221.001 14.6685 221 14C221.001 13.3315 220.961 12.6636 220.88 12H222.74C223.087 13.3108 223.087 14.6892 222.74 16Z" fill="black"/>
</svg>
